<svg width="7" height="7" viewBox="0.652344 0 6.21484 6.21484" preserveAspectRatio="none" fill="none" xmlns="http://www.w3.org/2000/svg">
<path d="M0.652344 3.12109C0.652344 4.85547 2.01562 6.21484 3.74609 6.21484H3.77344C5.50781 6.21484 6.86719 4.85547 6.86719 3.12109V3.09375C6.86719 1.36328 5.50781 0 3.77344 0H3.74609C2.01563 0 0.652344 1.36328 0.652344 3.09375V3.12109ZM1.23047 3.12109V3.09375C1.23047 1.68359 2.33984 0.578125 3.74609 0.578125H3.77344C5.18359 0.578125 6.28906 1.68359 6.28906 3.09375V3.12109C6.28906 4.53125 5.18359 5.63672 3.77344 5.63672H3.74609C2.33984 5.63672 1.23047 4.53125 1.23047 3.12109ZM3.70703 1.64062C2.99609 1.64062 2.49219 2.0625 2.42969 2.67578V2.70312H3.03906L3.04297 2.68359C3.10547 2.39453 3.35938 2.19922 3.70703 2.19922C4.16797 2.19922 4.44922 2.54687 4.44922 3.10547V3.10937C4.44922 3.67187 4.16797 4.01562 3.71094 4.01562C3.36328 4.01562 3.10156 3.80469 3.03906 3.50781V3.49609H2.42969V3.52344C2.48828 4.13281 3.00781 4.57422 3.71094 4.57422C4.56641 4.57422 5.09375 4.01562 5.09375 3.10938V3.10547C5.09375 2.19922 4.56641 1.64062 3.70703 1.64062Z" fill="black"/>
</svg>
