<svg width="63" height="9" viewBox="0 0 63 9" fill="none" xmlns="http://www.w3.org/2000/svg">
<path d="M3.32227 8.87695C5.34961 8.87695 6.62109 7.8457 6.62109 6.19922V6.19336C6.62109 4.91602 5.87695 4.20117 4.0957 3.82617L3.1875 3.63281C2.13281 3.41016 1.70508 3.03516 1.70508 2.4375V2.43164C1.70508 1.71094 2.37305 1.27148 3.31055 1.27148C4.27734 1.26562 4.9043 1.73438 5.00977 2.39062L5.02148 2.46094H6.46875L6.46289 2.38477C6.35742 1.02539 5.19141 0 3.31641 0C1.48828 0 0.1875 1.01953 0.1875 2.53125V2.53711C0.1875 3.79688 0.9375 4.60547 2.66602 4.96875L3.57422 5.15625C4.66406 5.39062 5.10352 5.75977 5.10352 6.36914V6.375C5.10352 7.10156 4.38867 7.60547 3.36914 7.60547C2.29688 7.60547 1.54102 7.13672 1.4707 6.42773L1.46484 6.36914H0L0.00585938 6.45117C0.111328 7.91016 1.35938 8.87695 3.32227 8.87695Z" fill="black"/>
<path d="M12.7355 8.87695C14.9914 8.87695 16.4328 7.47656 16.4328 5.29102V4.23633H12.923V5.39062H14.9504L14.9445 5.56641C14.927 6.76758 14.048 7.57031 12.759 7.57031C11.2531 7.57031 10.3039 6.36914 10.3039 4.42969V4.41797C10.3039 2.50781 11.2355 1.30664 12.7121 1.30664C13.7961 1.30664 14.5695 1.8457 14.8449 2.77148L14.8625 2.83008H16.3625L16.3566 2.77148C16.0695 1.11914 14.6633 0 12.7121 0C10.3039 0 8.76289 1.72852 8.76289 4.42969V4.44141C8.76289 7.17188 10.2863 8.87695 12.7355 8.87695Z" fill="black"/>
<path d="M22.4594 8.87695C24.6098 8.87695 25.934 7.61719 25.934 5.75391V0.210938H24.4223V5.63086C24.4223 6.79688 23.7191 7.57031 22.4652 7.57031C21.2055 7.57031 20.4965 6.79688 20.4965 5.63086V0.210938H18.9848V5.75391C18.9848 7.61719 20.3207 8.87695 22.4594 8.87695Z" fill="black"/>
<path d="M31.7496 8.87695C33.777 8.87695 35.0484 7.8457 35.0484 6.19922V6.19336C35.0484 4.91602 34.3043 4.20117 32.523 3.82617L31.6148 3.63281C30.5602 3.41016 30.1324 3.03516 30.1324 2.4375V2.43164C30.1324 1.71094 30.8004 1.27148 31.7379 1.27148C32.7047 1.26562 33.3316 1.73438 33.4371 2.39062L33.4488 2.46094H34.8961L34.8902 2.38477C34.7848 1.02539 33.6188 0 31.7438 0C29.9156 0 28.6148 1.01953 28.6148 2.53125V2.53711C28.6148 3.79688 29.3648 4.60547 31.0934 4.96875L32.0016 5.15625C33.0914 5.39062 33.5309 5.75977 33.5309 6.36914V6.375C33.5309 7.10156 32.816 7.60547 31.7965 7.60547C30.7242 7.60547 29.9684 7.13672 29.898 6.42773L29.8922 6.36914H28.4273L28.4332 6.45117C28.5387 7.91016 29.7867 8.87695 31.7496 8.87695Z" fill="black"/>
<path d="M39.6512 8.66602H41.1629V1.48242H43.7703V0.210938H37.0496V1.48242H39.6512V8.66602Z" fill="black"/>
<path d="M49.4805 8.87695C51.9473 8.87695 53.4766 7.16016 53.4766 4.44141V4.42969C53.4766 1.70508 51.9414 0 49.4805 0C47.0254 0 45.4785 1.70508 45.4785 4.42969V4.44141C45.4785 7.16016 47.002 8.87695 49.4805 8.87695ZM49.4805 7.57031C47.957 7.57031 47.0195 6.33984 47.0195 4.44141V4.42969C47.0195 2.51953 47.9805 1.30664 49.4805 1.30664C50.9805 1.30664 51.9355 2.51953 51.9355 4.42969V4.44141C51.9355 6.33984 50.9863 7.57031 49.4805 7.57031Z" fill="black"/>
<path d="M56.0109 8.66602H57.5227V5.94727L58.425 4.89844L61.0969 8.66602H62.9426L59.5031 3.89648L62.6906 0.210938H60.9562L57.6223 4.11914H57.5227V0.210938H56.0109V8.66602Z" fill="black"/>
</svg>
